<svg width="178" height="68" viewBox="0 0 178 68" fill="none" xmlns="http://www.w3.org/2000/svg">
<g clip-path="url(#clip0_139_163)">
<path d="M109.508 11.7561C109.441 11.6968 109.338 11.7024 109.279 11.7691C108.988 12.1323 108.609 12.4177 108.187 12.6178C107.765 12.8217 107.299 12.9365 106.827 13.0014C105.88 13.133 104.908 13.0811 103.944 13.0014C102.978 12.9199 102.012 12.8179 101.039 12.7438C100.066 12.6753 99.0833 12.6438 98.1008 12.7327C97.6105 12.779 97.1183 12.8494 96.6335 12.9662C96.3893 13.0236 96.1543 13.0922 95.91 13.1719C95.7953 13.2127 95.6824 13.2479 95.564 13.2923C95.4474 13.3387 95.3272 13.3831 95.2124 13.4332C94.291 13.8223 93.425 14.3838 92.7145 15.1214C92.3629 15.492 92.0465 15.9034 91.7893 16.35C91.5377 16.8003 91.3342 17.2821 91.2065 17.788C91.0733 18.292 91.0159 18.8146 91.027 19.3353C91.0307 19.5966 91.0548 19.8561 91.0955 20.1137C91.1325 20.3694 91.2472 20.6548 91.447 20.7808C91.6006 20.8771 91.8023 20.7641 91.9059 20.7029C98.6411 16.6743 103.178 19.971 107.976 14.9861C107.839 15.1288 107.717 15.3808 107.504 15.6532C107.271 15.946 106.975 16.2907 106.596 16.6465C106.218 17.0041 105.763 17.3729 105.234 17.7305C104.706 18.0882 104.107 18.4347 103.452 18.759C102.795 19.0815 102.086 19.3835 101.339 19.6652C99.8438 20.2285 98.2044 20.7066 96.5558 21.1829C94.909 21.6592 93.2492 22.1335 91.7172 22.7136C90.953 23.0045 90.2184 23.3177 89.5393 23.6716C88.8603 24.0219 88.2367 24.411 87.6945 24.8317C87.1506 25.2486 86.6898 25.6989 86.329 26.1418C85.9645 26.5847 85.6962 27.0146 85.5038 27.3834C85.4112 27.5724 85.3298 27.7318 85.2651 27.8912C85.2336 27.9709 85.204 28.0431 85.1762 28.1098C85.1633 28.1432 85.1503 28.1747 85.1374 28.2062L85.1115 28.2822C85.0467 28.473 85.0116 28.575 85.0116 28.575C85.0079 28.5861 85.0042 28.5991 85.0005 28.6102C84.8913 28.9919 85.1133 29.3903 85.4945 29.4997C85.8757 29.609 86.2735 29.3866 86.3827 29.0049C86.3827 29.0049 86.4123 28.9011 86.4678 28.7084L86.49 28.6324L86.514 28.562C86.5307 28.5138 86.5492 28.4601 86.5695 28.4026C86.6066 28.2877 86.6713 28.145 86.7361 27.9931C86.8749 27.6892 87.0728 27.3297 87.3541 26.9498C87.6335 26.568 87.9999 26.1659 88.4587 25.7749C88.9139 25.3802 89.4579 24.9985 90.0722 24.6408C90.6847 24.2795 91.3656 23.944 92.0872 23.6253C92.1594 23.5938 92.2334 23.5623 92.3056 23.5326L92.3333 23.5716C92.4258 23.692 92.5313 23.8162 92.6294 23.9385C92.8329 24.1757 93.0439 24.4018 93.2696 24.6149C93.7192 25.0429 94.2207 25.4191 94.761 25.7286C95.2994 26.0399 95.8786 26.2808 96.4762 26.4457C97.0739 26.6125 97.6882 26.7052 98.3044 26.7311C99.5367 26.7849 100.76 26.5736 101.909 26.1807C103.058 25.786 104.138 25.2116 105.119 24.5074C106.1 23.8013 106.982 22.9637 107.734 22.0187C108.483 21.0736 109.099 20.021 109.528 18.8925C109.958 17.7658 110.196 16.5612 110.2 15.353C110.208 14.1448 109.976 12.944 109.553 11.8191C109.543 11.795 109.528 11.7728 109.508 11.7561Z" fill="#009247"/>
<path d="M124.672 13.6464C124.42 12.4048 124.018 11.1762 123.461 9.95682C122.904 8.73932 122.199 7.57186 121.346 6.45629C120.493 5.34071 119.459 4.35486 118.243 3.50242C117.026 2.64814 115.622 1.96619 114.03 1.45288C112.439 0.939568 110.642 0.683838 108.642 0.683838H88.5864C87.3578 0.683838 86.0163 0.906211 84.5619 1.35096C83.1057 1.79385 81.7587 2.5073 80.5189 3.48575C79.2792 4.46419 78.2449 5.7521 77.4159 7.34578C76.5851 8.93946 76.1707 10.876 76.1707 13.1534V49.6672H76.1929L85.0393 41.9934V37.6442H108.64C109.732 37.6442 110.896 37.52 112.136 37.268C113.375 37.0178 114.602 36.6194 115.82 36.0727C117.035 35.5261 118.201 34.8219 119.315 33.9546C120.429 33.0892 121.413 32.0478 122.264 30.8284C123.117 29.6109 123.794 28.2044 124.294 26.6107C124.794 25.0171 125.045 23.2066 125.045 21.1793V17.1488C125.045 16.0554 124.919 14.8898 124.67 13.6482L124.672 13.6464ZM116.179 21.1774C116.179 22.3152 115.995 23.3344 115.633 24.2351C115.268 25.1357 114.757 25.9029 114.099 26.5403C113.438 27.1778 112.648 27.6837 111.728 28.0599C110.809 28.4361 109.778 28.6696 108.642 28.7604H85.0411V13.1497C85.0411 11.9878 85.3483 11.1002 85.9626 10.485C86.5769 9.86972 87.4743 9.5621 88.6567 9.5621H108.644C109.804 9.5621 110.826 9.74927 111.714 10.1255C112.6 10.5016 113.355 11.0205 113.982 11.6802C114.608 12.3418 115.102 13.1368 115.466 14.0707C115.829 15.0047 116.067 16.0295 116.182 17.145V21.1756L116.179 21.1774Z" fill="#434345"/>
<path d="M137.994 41.9916V15.1659L170.393 49.0501C170.66 49.3299 170.956 49.5467 171.27 49.732L178 43.8947V0.681946H169.133V35.1814L136.732 1.33239C136.096 0.670827 135.333 0.25573 134.447 0.0852432C133.561 -0.0852432 132.696 0 131.855 0.340973C131.059 0.706036 130.406 1.25826 129.893 1.99766C129.381 2.7389 129.127 3.56354 129.127 4.47342V49.6634H129.149L137.996 41.9897L137.994 41.9916Z" fill="#434345"/>
<path fill-rule="evenodd" clip-rule="evenodd" d="M47.4758 44.2802L50.5917 49.6839L53.7077 44.2802L56.8236 38.8747L53.7077 33.4692L50.5917 28.0637L47.4758 22.6581L44.3598 17.2544L41.2438 11.8489L38.1279 6.44337L35.0119 1.03784H28.78H22.5481L25.6641 6.44337L28.78 11.8489L31.896 17.2544L35.0119 22.6581L38.1279 28.0637L41.2438 33.4692L44.3598 38.8747L47.4758 44.2802Z" fill="#009247"/>
<path fill-rule="evenodd" clip-rule="evenodd" d="M0 1.03784L3.11596 6.44337L6.23192 11.8489L9.34787 17.2544L12.4638 22.6581L15.5798 28.0637L18.6957 33.4692L21.8117 38.8747L24.9277 44.2802L28.0436 49.6839L31.1596 44.2802L34.2755 38.8747L31.1596 33.4692L28.0436 28.0637L24.9277 22.6581L21.8117 17.2544L18.6957 11.8489L15.5798 6.44337L12.4638 1.03784H6.23192H0Z" fill="#009247"/>
<path fill-rule="evenodd" clip-rule="evenodd" d="M54.113 15.6459L61.2719 28.0636L76.8517 1.03784H45.6921L52.1979 12.3233L54.113 15.6459Z" fill="#009247"/>
<path d="M15.7721 67.8611L12.584 58.2268H14.4399L17.2838 66.9383H16.3624L19.3173 58.2268H20.966L23.8377 66.9383H22.944L25.8583 58.2268H27.5624L24.3743 67.8611H22.4777L19.8521 60.0021H20.3461L17.6946 67.8611H15.7703H15.7721Z" fill="#434345"/>
<path d="M33.4316 68.0002C32.6896 68.0002 31.9994 67.876 31.3629 67.6295C30.7264 67.3812 30.175 67.0328 29.7069 66.5844C29.2387 66.1359 28.8779 65.6096 28.6207 65.0092C28.3635 64.4088 28.2358 63.7547 28.2358 63.0486C28.2358 62.3426 28.3635 61.6755 28.6207 61.0732C28.8779 60.4728 29.2387 59.9502 29.7069 59.5036C30.175 59.0589 30.7245 58.7123 31.3555 58.464C31.9865 58.2157 32.6785 58.0916 33.4316 58.0916C34.1847 58.0916 34.86 58.2139 35.4928 58.4566C36.1257 58.6994 36.6715 59.044 37.1359 59.4888C37.5985 59.9335 37.9575 60.4598 38.2147 61.0639C38.4719 61.6699 38.5995 62.3296 38.5995 63.0468C38.5995 63.7639 38.4719 64.4218 38.2147 65.0222C37.9575 65.6226 37.5985 66.1489 37.1359 66.5973C36.6733 67.0476 36.1257 67.3942 35.4928 67.6369C34.86 67.8797 34.1735 68.002 33.4316 68.002V68.0002ZM33.4316 66.4306C33.9164 66.4306 34.3641 66.3472 34.7712 66.1822C35.1783 66.0173 35.5335 65.7838 35.837 65.4799C36.1386 65.1779 36.3754 64.8184 36.5438 64.407C36.7141 63.9937 36.7973 63.5397 36.7973 63.0449C36.7973 62.5501 36.7141 62.0961 36.5494 61.6829C36.3847 61.2696 36.1479 60.912 35.8426 60.6099C35.5354 60.3079 35.1783 60.0725 34.7712 59.9076C34.3641 59.7427 33.9164 59.6593 33.4316 59.6593C32.9468 59.6593 32.4953 59.7427 32.0771 59.9076C31.6608 60.0725 31.3 60.3097 30.9984 60.6155C30.6968 60.9231 30.4581 61.2808 30.2842 61.6884C30.1102 62.0961 30.0233 62.5483 30.0233 63.0449C30.0233 63.5416 30.1102 63.9807 30.2842 64.394C30.4581 64.8072 30.6968 65.1667 30.9984 65.4744C31.3 65.782 31.6608 66.0173 32.0771 66.1841C32.4935 66.349 32.9449 66.4324 33.4316 66.4324V66.4306Z" fill="#434345"/>
<path d="M40.4963 67.8611V58.2268H41.9674L48.0013 65.6596H47.2722V58.2268H49.0319V67.8611H47.5609L41.5418 60.4283H42.2708V67.8611H40.4982H40.4963Z" fill="#434345"/>
<path d="M56.1222 68.0001C55.371 68.0001 54.6808 67.8778 54.0536 67.635C53.4263 67.3923 52.8786 67.0457 52.4105 66.5954C51.9423 66.1451 51.5815 65.6225 51.3243 65.0258C51.0671 64.4291 50.9395 63.7694 50.9395 63.043C50.9395 62.3166 51.0671 61.6569 51.3243 61.0602C51.5815 60.4635 51.9442 59.9409 52.416 59.4906C52.8879 59.0403 53.4374 58.6956 54.0647 58.451C54.6919 58.2082 55.3914 58.0859 56.1611 58.0859C56.9308 58.0859 57.6987 58.2194 58.3537 58.4844C59.0087 58.7512 59.5601 59.1404 60.0098 59.6537L58.8829 60.7544C58.5073 60.3782 58.1021 60.1003 57.6673 59.9224C57.2324 59.7426 56.7532 59.6537 56.2314 59.6537C55.7096 59.6537 55.2489 59.7371 54.8233 59.902C54.3977 60.0669 54.0277 60.3004 53.7168 60.6043C53.4059 60.9064 53.1617 61.2659 52.9878 61.6773C52.8138 62.0905 52.7269 62.5445 52.7269 63.0393C52.7269 63.5341 52.8138 63.977 52.9878 64.3958C53.1617 64.8127 53.4041 65.1741 53.7168 65.4761C54.0277 65.7782 54.394 66.0136 54.8159 66.1785C55.2378 66.3434 55.7041 66.4268 56.2184 66.4268C56.694 66.4268 57.1547 66.3508 57.5988 66.1989C58.0429 66.0469 58.4666 65.793 58.87 65.4354L59.8729 66.7696C59.3788 67.1736 58.8015 67.4794 58.1409 67.6851C57.4822 67.8908 56.8087 67.9945 56.1204 67.9945L56.1222 68.0001ZM58.1983 66.5417V62.9504H59.8747V66.777L58.1983 66.5435V66.5417Z" fill="#434345"/>
<path d="M62.2377 67.8611V58.2268H66.1955C67.0467 58.2268 67.7776 58.3621 68.3882 58.6326C68.9969 58.9032 69.4669 59.2961 69.7963 59.8094C70.1256 60.3227 70.2903 60.9379 70.2903 61.6532C70.2903 62.3685 70.1256 62.9671 69.7963 63.4767C69.4669 63.9863 68.9969 64.381 68.3882 64.6608C67.7794 64.9406 67.0486 65.0796 66.1955 65.0796H63.2406L64.0233 64.2531V67.8593H62.2358L62.2377 67.8611ZM64.0251 64.4477L63.2424 63.5675H66.1141C66.9024 63.5675 67.4945 63.4007 67.8941 63.0653C68.292 62.7299 68.4918 62.261 68.4918 61.6551C68.4918 61.0491 68.292 60.5784 67.8941 60.2448C67.4963 59.9094 66.9024 59.7427 66.1141 59.7427H63.2424L64.0251 58.8624V64.4514V64.4477Z" fill="#434345"/>
<path d="M70.2366 67.8611L74.5663 58.2268H76.326L80.6687 67.8611H78.7851L75.0752 59.1756H75.7894L72.0647 67.8611H70.2366ZM72.2294 65.6319L72.7234 64.2272H77.9043L78.3854 65.6319H72.2294Z" fill="#434345"/>
<path d="M81.8899 67.8611V58.2268H83.3609L89.3948 65.6596H88.6658V58.2268H90.4255V67.8611H88.9545L82.9353 60.4283H83.6644V67.8611H81.8917H81.8899Z" fill="#434345"/>
<path d="M93.0215 67.8611V58.2268H94.8089V67.8611H93.0215Z" fill="#434345"/>
<path d="M99.3571 67.8611V59.7408H96.1689V58.2268H104.333V59.7408H101.144V67.8611H99.3571Z" fill="#434345"/>
<path d="M109.471 67.8611V58.2268H113.429C114.282 58.2268 115.011 58.3621 115.622 58.6326C116.23 58.9032 116.7 59.2961 117.03 59.8094C117.359 60.3227 117.524 60.9379 117.524 61.6532C117.524 62.3685 117.359 62.9652 117.03 63.4693C116.7 63.9733 116.23 64.3643 115.622 64.6386C115.013 64.9128 114.282 65.0518 113.429 65.0518H110.474L111.257 64.2531V67.8593H109.469L109.471 67.8611ZM111.259 64.4477L110.476 63.5805H113.348C114.136 63.5805 114.728 63.41 115.128 63.0708C115.525 62.7317 115.725 62.2592 115.725 61.6532C115.725 61.0472 115.525 60.5766 115.128 60.243C114.73 59.9076 114.136 59.7408 113.348 59.7408H110.476L111.259 58.8606V64.4496V64.4477ZM115.766 67.8611L113.333 64.3643H115.242L117.688 67.8611H115.764H115.766Z" fill="#434345"/>
<path d="M121.304 66.3472H126.733V67.8611H119.518V58.2268H126.54V59.7408H121.304V66.3472ZM121.167 62.2314H125.95V63.7046H121.167V62.2314Z" fill="#434345"/>
<path d="M133.179 68.0001C132.437 68.0001 131.755 67.8778 131.131 67.635C130.507 67.3923 129.965 67.0457 129.503 66.5954C129.04 66.1451 128.681 65.6225 128.424 65.0258C128.167 64.4291 128.039 63.7694 128.039 63.043C128.039 62.3166 128.167 61.6569 128.424 61.0602C128.681 60.4635 129.042 59.9409 129.51 59.4906C129.978 59.0403 130.522 58.6956 131.146 58.451C131.769 58.2082 132.452 58.0859 133.194 58.0859C133.982 58.0859 134.7 58.2212 135.352 58.4918C136.003 58.7623 136.552 59.1645 137 59.6963L135.846 60.7841C135.488 60.4079 135.094 60.1262 134.663 59.9372C134.232 59.75 133.77 59.6555 133.276 59.6555C132.781 59.6555 132.311 59.7389 131.895 59.9038C131.479 60.0688 131.116 60.3023 130.809 60.6062C130.502 60.9082 130.261 61.2677 130.087 61.6791C129.913 62.0924 129.826 62.5464 129.826 63.0412C129.826 63.5359 129.913 63.99 130.087 64.4032C130.261 64.8164 130.502 65.1741 130.809 65.4761C131.116 65.7782 131.477 66.0136 131.895 66.1785C132.311 66.3434 132.772 66.4268 133.276 66.4268C133.779 66.4268 134.232 66.3323 134.663 66.1451C135.094 65.958 135.488 65.6707 135.846 65.2853L137 66.3731C136.551 66.9049 136.001 67.3089 135.352 67.585C134.7 67.8611 133.977 67.9982 133.179 67.9982V68.0001Z" fill="#434345"/>
<path d="M140.943 67.8611V64.0493L141.356 65.1371L137.165 58.2268H139.062L142.442 63.801H141.371L144.738 58.2268H146.498L142.32 65.1371L142.718 64.0493V67.8611H140.945H140.943Z" fill="#434345"/>
<path d="M151.705 68.0001C150.963 68.0001 150.28 67.8778 149.657 67.635C149.033 67.3923 148.491 67.0457 148.028 66.5954C147.566 66.1451 147.207 65.6225 146.95 65.0258C146.692 64.4291 146.565 63.7694 146.565 63.043C146.565 62.3166 146.692 61.6569 146.95 61.0602C147.207 60.4635 147.568 59.9409 148.036 59.4906C148.504 59.0403 149.048 58.6956 149.671 58.451C150.295 58.2082 150.978 58.0859 151.72 58.0859C152.508 58.0859 153.226 58.2212 153.877 58.4918C154.529 58.7623 155.078 59.1645 155.526 59.6963L154.371 60.7841C154.014 60.4079 153.62 60.1262 153.189 59.9372C152.758 59.75 152.295 59.6555 151.801 59.6555C151.307 59.6555 150.837 59.7389 150.421 59.9038C150.004 60.0688 149.642 60.3023 149.335 60.6062C149.027 60.9082 148.787 61.2677 148.613 61.6791C148.439 62.0924 148.352 62.5464 148.352 63.0412C148.352 63.5359 148.439 63.99 148.613 64.4032C148.787 64.8164 149.027 65.1741 149.335 65.4761C149.642 65.7782 150.003 66.0136 150.421 66.1785C150.837 66.3434 151.298 66.4268 151.801 66.4268C152.304 66.4268 152.758 66.3323 153.189 66.1451C153.62 65.958 154.014 65.6707 154.371 65.2853L155.526 66.3731C155.076 66.9049 154.527 67.3089 153.877 67.585C153.226 67.8611 152.502 67.9982 151.705 67.9982V68.0001Z" fill="#434345"/>
<path d="M157.243 67.8611V58.2268H159.03V66.3472H164.06V67.8611H157.243Z" fill="#434345"/>
<path d="M167.261 66.3472H172.69V67.8611H165.475V58.2268H172.497V59.7408H167.261V66.3472ZM167.124 62.2314H171.907V63.7046H167.124V62.2314Z" fill="#434345"/>
</g>
<defs>
<clipPath id="clip0_139_163">
<rect width="178" height="68" fill="white"/>
</clipPath>
</defs>
</svg>
